<svg width="13" height="14" viewBox="0 0 13 14" fill="none" xmlns="http://www.w3.org/2000/svg">
<path d="M6.5 0.75C3.05 0.75 0.25 3.55 0.25 7C0.25 10.45 3.05 13.25 6.5 13.25C9.95 13.25 12.75 10.45 12.75 7C12.75 3.55 9.95 0.75 6.5 0.75ZM6.5 2.625C7.5375 2.625 8.375 3.4625 8.375 4.5C8.375 5.5375 7.5375 6.375 6.5 6.375C5.4625 6.375 4.625 5.5375 4.625 4.5C4.625 3.4625 5.4625 2.625 6.5 2.625ZM6.5 11.5C4.9375 11.5 3.55625 10.7 2.75 9.4875C2.76875 8.24375 5.25 7.5625 6.5 7.5625C7.74375 7.5625 10.2312 8.24375 10.25 9.4875C9.44375 10.7 8.0625 11.5 6.5 11.5Z" fill="white"/>
</svg>
