<svg width="80" height="80" viewBox="0 0 80 80" fill="none" xmlns="http://www.w3.org/2000/svg">
<path fill-rule="evenodd" clip-rule="evenodd" d="M17.4631 29.2908C17.6353 29.2124 24.4474 29.2593 24.4504 29.2593C26.0764 29.2593 27.4029 30.2176 27.9346 31.6338C28.2085 32.3645 28.149 33.1546 28.1484 33.9964V49.322C28.1484 50.547 27.7688 51.3519 27.1451 51.971C26.3312 52.7789 25.6041 53.064 24.3162 53.064L20.1435 53.0581L20.1357 32.1144C20.1357 31.2637 20.3336 31.3819 19.0415 30.4926C18.6512 30.2235 17.6056 29.5195 17.4939 29.3502C17.4868 29.3401 17.472 29.3027 17.4631 29.2908ZM40 -3.8147e-06C62.092 -3.8147e-06 80 17.9086 80 40C80 62.092 62.0914 80 40 80C17.9086 80 0 62.0914 0 40C-9.53674e-07 17.9086 17.9086 -3.8147e-06 40 -3.8147e-06ZM40 3.05823C52.6933 3.05823 63.8908 9.46103 70.5401 19.2126C69.7346 19.2898 66.8308 19.2298 65.8554 19.2298C64.5764 19.2298 64.8075 19.2345 64.3619 20.2266C64.2502 20.4761 64.0975 20.7755 63.9615 21.0809C63.8421 21.3518 63.6597 21.6797 63.5463 21.966C63.2795 21.9435 63.1607 21.795 62.967 21.6482C62.7965 21.5187 62.6468 21.4046 62.4787 21.2876L60.5041 19.8548C60.0936 19.5648 59.8714 19.2749 59.313 19.2749H50.9783C50.6414 19.2749 50.484 19.313 50.266 19.484L45.4648 22.9706C45.1505 23.2326 44.7162 23.4975 44.3978 23.7411C44.0485 24.0072 43.6689 24.2621 43.3363 24.5169C42.4083 25.2257 42.5301 25.0243 42.5289 26.4227V56.7151C42.5289 57.2908 43.0594 57.4892 43.4681 57.7755C43.8341 58.0328 44.2642 58.4338 44.6503 58.65C45.078 58.8888 45.4184 59.2363 45.8177 59.4977C46.7408 60.1025 50.1335 62.7443 50.5749 62.9005C50.8892 63.0122 52.1504 62.9486 52.5924 62.9486C54.2409 62.9486 68.591 62.8767 68.9053 62.9855C68.9065 62.9896 68.9083 62.9944 68.91 62.9985C62.1413 71.4954 51.7078 76.9424 40.0006 76.9424C28.2875 76.9424 17.8486 71.4895 11.0811 62.9854C11.0811 62.9825 11.0822 62.9795 11.0828 62.9765C11.5438 62.9118 12.0209 62.948 12.486 62.948L30.5449 62.9486C31.351 62.9474 31.43 62.8785 31.9671 62.4853L38.7156 57.5777C39.1232 57.3044 39.3323 57.21 39.3323 56.6254V25.4817C39.3323 24.9542 38.9158 24.7617 38.5095 24.5015C38.3812 24.4189 38.1596 24.2383 38.004 24.1166L34.2928 21.4201C33.9227 21.1563 33.6055 20.9312 33.2194 20.6526L31.6445 19.4977C31.2922 19.2203 30.8152 19.2749 30.3655 19.2749L9.47411 19.2672C9.46757 19.2494 9.46342 19.231 9.46044 19.2126C16.1098 9.46103 27.3073 3.05823 40 3.05823ZM73.2235 23.832C75.6045 28.7158 76.9424 34.2013 76.9424 40C76.9424 46.5495 75.2356 52.7005 72.2457 58.0334C72.2225 58.0316 72.1952 58.0286 72.1643 58.0238C72.0615 57.4345 72.1946 47.8422 72.1299 47.5779C72.1007 47.4579 72.0645 47.4163 71.9499 47.3628C71.8245 47.304 61.9292 47.2737 61.7866 47.3937C61.6066 47.5452 61.6957 49.8056 61.6957 50.1721C61.6951 50.948 61.7789 52.3755 61.6779 53.0741C61.1558 53.1181 58.1118 53.0943 57.3846 53.0866C56.1092 53.0735 55.1272 52.5032 54.4856 51.6858C53.6729 50.6509 53.7127 49.7284 53.7127 48.1559L53.7133 32.0241C53.7139 31.6213 53.7823 31.3766 53.5119 31.1491L51.0591 29.2855C52.11 29.2534 61.4391 29.2154 61.6548 29.3211C61.7148 29.3811 61.6957 29.7399 61.6957 29.8285L61.694 34.8922C61.6904 35.3984 61.7041 35.4845 62.2251 35.4804L69.0372 35.4792C69.4037 35.4792 71.0505 35.5487 71.2091 35.4037C71.4431 35.1899 71.4723 33.7641 71.6784 33.0649C71.758 32.794 72.2023 29.3496 72.3669 28.635L72.9841 24.7201C73.0031 24.4997 73.037 24.4391 73.0596 24.2669C73.0827 24.0904 73.0489 23.8635 73.2158 23.8338C73.2182 23.8326 73.2206 23.8326 73.2235 23.832ZM8.84856 59.8637C5.18319 54.1274 3.05824 47.3123 3.05824 40C3.05824 35.671 3.80497 31.518 5.1731 27.6577C5.50755 27.7296 6.01429 28.2084 6.4337 28.4865L8.6947 30.1243C8.82004 30.2306 8.90915 30.2799 8.94123 30.4576C9.00955 30.8389 8.95311 53.8761 8.95311 57.611C8.95311 58.0328 9.04698 59.6088 8.90143 59.8613C8.88242 59.8631 8.8646 59.8637 8.84856 59.8637Z" fill="#0078EF"/>
</svg>
